<svg width="22" height="22" viewBox="0 0 22 22" fill="none" xmlns="http://www.w3.org/2000/svg">
<path d="M8.25 20.1668V16.5002H13.75V20.1668M7.33333 5.50016H7.3425M14.6667 5.50016H14.6758M11 5.50016H11.0092M11 9.16683H11.0092M11 12.8335H11.0092M14.6667 9.16683H14.6758M14.6667 12.8335H14.6758M7.33333 9.16683H7.3425M7.33333 12.8335H7.3425M5.5 1.8335H16.5C17.5125 1.8335 18.3333 2.65431 18.3333 3.66683V18.3335C18.3333 19.346 17.5125 20.1668 16.5 20.1668H5.5C4.48748 20.1668 3.66667 19.346 3.66667 18.3335V3.66683C3.66667 2.65431 4.48748 1.8335 5.5 1.8335Z" stroke="#9CA3AF" stroke-width="1.8" stroke-linecap="round" stroke-linejoin="round"/>
</svg>
