<svg width="33" height="32" viewBox="0 0 33 32" fill="none" xmlns="http://www.w3.org/2000/svg">
<path d="M0.5 16C0.5 7.16344 7.66344 0 16.5 0C25.3366 0 32.5 7.16344 32.5 16C32.5 24.8366 25.3366 32 16.5 32C7.66344 32 0.5 24.8366 0.5 16Z" fill="#DBEAFE"/>
<path d="M16.5 16.8335C16.9602 16.8335 17.3333 16.4604 17.3333 16.0002C17.3333 15.5399 16.9602 15.1668 16.5 15.1668C16.0397 15.1668 15.6666 15.5399 15.6666 16.0002C15.6666 16.4604 16.0397 16.8335 16.5 16.8335Z" stroke="#155DFC" stroke-width="2" stroke-linecap="round" stroke-linejoin="round"/>
<path d="M16.5 11.0002C16.9602 11.0002 17.3333 10.6271 17.3333 10.1668C17.3333 9.70659 16.9602 9.3335 16.5 9.3335C16.0397 9.3335 15.6666 9.70659 15.6666 10.1668C15.6666 10.6271 16.0397 11.0002 16.5 11.0002Z" stroke="#155DFC" stroke-width="2" stroke-linecap="round" stroke-linejoin="round"/>
<path d="M16.5 22.6668C16.9602 22.6668 17.3333 22.2937 17.3333 21.8335C17.3333 21.3733 16.9602 21.0002 16.5 21.0002C16.0397 21.0002 15.6666 21.3733 15.6666 21.8335C15.6666 22.2937 16.0397 22.6668 16.5 22.6668Z" stroke="#155DFC" stroke-width="2" stroke-linecap="round" stroke-linejoin="round"/>
</svg>
