<svg width="20" height="20" viewBox="0 0 20 20" fill="none" xmlns="http://www.w3.org/2000/svg">
<path d="M10 10.8329V17.4996M10 17.4996L6.66671 14.1663M10 17.4996L13.3334 14.1663M3.6609 12.7238C2.98029 12.1284 2.44742 11.3829 2.10437 10.5462C1.76133 9.70955 1.6175 8.80456 1.68425 7.90274C1.751 7.00092 2.0265 6.12697 2.48899 5.34991C2.95148 4.57284 3.5883 3.91394 4.34916 3.42523C5.11001 2.93653 5.97407 2.63141 6.87309 2.53397C7.77211 2.43652 8.68147 2.54943 9.52937 2.86376C10.3773 3.1781 11.1405 3.68525 11.7587 4.34518C12.377 5.00511 12.8333 5.79973 13.0917 6.66631H14.5834C15.3935 6.66621 16.1818 6.92841 16.8304 7.41369C17.479 7.89897 17.953 8.58122 18.1815 9.35837C18.4101 10.1355 18.3808 10.9658 18.0981 11.7249C17.8155 12.484 17.2946 13.1312 16.6134 13.5696" stroke="#155DFC" stroke-width="2" stroke-linecap="round" stroke-linejoin="round"/>
</svg>
