<svg width="20" height="20" viewBox="0 0 20 20" fill="none" xmlns="http://www.w3.org/2000/svg">
<g clip-path="url(#clip0_2115_1316)">
<path d="M5.83333 17.2182V15.8332C5.83333 15.3911 6.00893 14.9672 6.32149 14.6547C6.63405 14.3421 7.05797 14.1665 7.5 14.1665H12.5C12.942 14.1665 13.3659 14.3421 13.6785 14.6547C13.9911 14.9672 14.1667 15.3911 14.1667 15.8332V17.2182M18.3333 9.99984C18.3333 14.6022 14.6024 18.3332 10 18.3332C5.39762 18.3332 1.66666 14.6022 1.66666 9.99984C1.66666 5.39746 5.39762 1.6665 10 1.6665C14.6024 1.6665 18.3333 5.39746 18.3333 9.99984ZM12.5 8.33317C12.5 9.71388 11.3807 10.8332 10 10.8332C8.61929 10.8332 7.5 9.71388 7.5 8.33317C7.5 6.95246 8.61929 5.83317 10 5.83317C11.3807 5.83317 12.5 6.95246 12.5 8.33317Z" stroke="#99A1AF" stroke-width="1.8" stroke-linecap="round" stroke-linejoin="round"/>
</g>
<defs>
<clipPath id="clip0_2115_1316">
<rect width="20" height="20" fill="white"/>
</clipPath>
</defs>
</svg>
