<svg width="20" height="20" viewBox="0 0 20 20" fill="none" xmlns="http://www.w3.org/2000/svg">
<path d="M10 2.5002H4.16667C3.72464 2.5002 3.30072 2.6758 2.98816 2.98836C2.67559 3.30092 2.5 3.72484 2.5 4.16687V15.8335C2.5 16.2756 2.67559 16.6995 2.98816 17.012C3.30072 17.3246 3.72464 17.5002 4.16667 17.5002H15.8333C16.2754 17.5002 16.6993 17.3246 17.0118 17.012C17.3244 16.6995 17.5 16.2756 17.5 15.8335V10.0002M15.3126 2.18769C15.6441 1.85617 16.0937 1.66992 16.5626 1.66992C17.0314 1.66992 17.4811 1.85617 17.8126 2.18769C18.1441 2.51921 18.3303 2.96885 18.3303 3.43769C18.3303 3.90653 18.1441 4.35617 17.8126 4.68769L10.3017 12.1994C10.1039 12.3971 9.85942 12.5418 9.59091 12.6202L7.19674 13.3202C7.12504 13.3411 7.04903 13.3424 6.97667 13.3238C6.90431 13.3053 6.83827 13.2676 6.78545 13.2148C6.73263 13.162 6.69499 13.096 6.67645 13.0236C6.65791 12.9512 6.65916 12.8752 6.68008 12.8035L7.38008 10.4094C7.45885 10.1411 7.60386 9.8969 7.80174 9.69936L15.3126 2.18769Z" stroke="#99A1AF" stroke-width="1.8" stroke-linecap="round" stroke-linejoin="round"/>
</svg>
