<svg width="20" height="20" viewBox="0 0 20 20" fill="none" xmlns="http://www.w3.org/2000/svg">
<path d="M13.3333 18.3332H15C15.442 18.3332 15.8659 18.1576 16.1785 17.845C16.4911 17.5325 16.6667 17.1085 16.6667 16.6665V5.83317L12.5 1.6665H5C4.55797 1.6665 4.13405 1.8421 3.82149 2.15466C3.50893 2.46722 3.33333 2.89114 3.33333 3.33317V5.83317M11.6667 1.6665V4.99984C11.6667 5.44186 11.8423 5.86579 12.1548 6.17835C12.4674 6.49091 12.8913 6.6665 13.3333 6.6665H16.6667M7.91666 14.5832L6.66666 13.5415V11.6665M11.6667 13.3332C11.6667 16.0946 9.42809 18.3332 6.66666 18.3332C3.90524 18.3332 1.66666 16.0946 1.66666 13.3332C1.66666 10.5717 3.90524 8.33317 6.66666 8.33317C9.42809 8.33317 11.6667 10.5717 11.6667 13.3332Z" stroke="#60A5FA" stroke-width="1.8" stroke-linecap="round" stroke-linejoin="round"/>
</svg>
