<svg width="20" height="20" viewBox="0 0 20 20" fill="none" xmlns="http://www.w3.org/2000/svg">
<path d="M10 9.99984H10.0083M13.3333 4.99984V3.33317C13.3333 2.89114 13.1577 2.46722 12.8452 2.15466C12.5326 1.8421 12.1087 1.6665 11.6667 1.6665H8.33333C7.8913 1.6665 7.46738 1.8421 7.15482 2.15466C6.84226 2.46722 6.66666 2.89114 6.66666 3.33317V4.99984M18.3333 10.8332C15.8607 12.4657 12.963 13.3359 10 13.3359C7.03704 13.3359 4.13934 12.4657 1.66666 10.8332M3.33333 4.99984H16.6667C17.5871 4.99984 18.3333 5.74603 18.3333 6.6665V14.9998C18.3333 15.9203 17.5871 16.6665 16.6667 16.6665H3.33333C2.41286 16.6665 1.66666 15.9203 1.66666 14.9998V6.6665C1.66666 5.74603 2.41286 4.99984 3.33333 4.99984Z" stroke="#99A1AF" stroke-width="1.8" stroke-linecap="round" stroke-linejoin="round"/>
</svg>
