<svg width="22" height="21" viewBox="0 0 22 21" fill="none" xmlns="http://www.w3.org/2000/svg">
<path d="M21.9004 13.9502L15.25 20.5L11 16.25L12.4248 14.8252L15.25 17.6504L20.5 12.5L21.9004 13.9502ZM15.833 2.5C16.2913 2.5 16.6844 2.66287 17.0107 2.98926C17.3371 3.31565 17.5 3.70866 17.5 4.16699V10.833H15.833V4.16699H4.16699V15.833H9.16699V17.5H4.16699C3.70866 17.5 3.31565 17.3371 2.98926 17.0107C2.66287 16.6844 2.5 16.2913 2.5 15.833V4.16699C2.5 3.70866 2.66287 3.31565 2.98926 2.98926C3.31565 2.66287 3.70866 2.5 4.16699 2.5H15.833ZM9.16699 14.167H5.83301V12.5H9.16699V14.167ZM14.167 10.833H5.83301V9.16699H14.167V10.833ZM14.167 7.5H5.83301V5.83301H14.167V7.5Z" fill="#99A1AF"/>
</svg>
