<svg width="20" height="20" viewBox="0 0 20 20" fill="none" xmlns="http://www.w3.org/2000/svg">
<path d="M4.16699 2.5127H15.833C16.288 2.5127 16.6779 2.67398 17.002 2.99805C17.326 3.32211 17.4873 3.712 17.4873 4.16699V15.833C17.4873 16.288 17.326 16.6779 17.002 17.002C16.6779 17.326 16.288 17.4873 15.833 17.4873H4.16699C3.712 17.4873 3.32211 17.326 2.99805 17.002C2.67398 16.6779 2.5127 16.288 2.5127 15.833V4.16699C2.5127 3.712 2.67398 3.32211 2.99805 2.99805C3.32211 2.67398 3.712 2.5127 4.16699 2.5127ZM4.1543 15.8457H15.8457V4.1543H4.1543V15.8457ZM11.6543 12.5127V14.1543H5.8457V12.5127H11.6543ZM14.1543 9.17871V10.8213H5.8457V9.17871H14.1543ZM14.1543 5.8457V7.4873H5.8457V5.8457H14.1543Z" fill="#99A1AF" stroke="#99A1AF" stroke-width="0.025"/>
</svg>
