<svg width="20" height="20" viewBox="0 0 20 20" fill="none" xmlns="http://www.w3.org/2000/svg">
<path d="M9.58333 12.5H5.83333C4.94928 12.5 4.10143 12.8512 3.47631 13.4763C2.85119 14.1014 2.5 14.9493 2.5 15.8333V17.5M17.815 13.8549C18.1469 13.523 18.3334 13.0727 18.3334 12.6033C18.3334 12.1338 18.1469 11.6836 17.815 11.3516C17.483 11.0196 17.0328 10.8331 16.5633 10.8331C16.0938 10.8331 15.6436 11.0196 15.3116 11.3516L11.97 14.6949C11.7719 14.8929 11.6268 15.1377 11.5483 15.4066L10.8508 17.7983C10.8299 17.87 10.8286 17.946 10.8472 18.0183C10.8657 18.0907 10.9034 18.1567 10.9562 18.2095C11.009 18.2624 11.075 18.3 11.1474 18.3186C11.2198 18.3371 11.2958 18.3358 11.3675 18.3149L13.7591 17.6174C14.028 17.5389 14.2728 17.3939 14.4708 17.1958L17.815 13.8549ZM11.6667 5.83333C11.6667 7.67428 10.1743 9.16667 8.33333 9.16667C6.49238 9.16667 5 7.67428 5 5.83333C5 3.99238 6.49238 2.5 8.33333 2.5C10.1743 2.5 11.6667 3.99238 11.6667 5.83333Z" stroke="#99A1AF" stroke-width="2" stroke-linecap="round" stroke-linejoin="round"/>
</svg>
